<?xml version="1.0" standalone="no"?>
<!DOCTYPE svg PUBLIC "-//W3C//DTD SVG 20010904//EN"
 "http://www.w3.org/TR/2001/REC-SVG-20010904/DTD/svg10.dtd">
<svg version="1.0" xmlns="http://www.w3.org/2000/svg"
 width="224.000000pt" height="225.000000pt" viewBox="0 0 224.000000 225.000000"
 preserveAspectRatio="xMidYMid meet">
<metadata>
Created by potrace 1.16, written by Peter Selinger 2001-2019
</metadata>
<g transform="translate(0.000000,225.000000) scale(0.100000,-0.100000)"
fill="#000000" stroke="none">
<path d="M723 1737 c-133 -51 -255 -228 -257 -374 -1 -52 3 -65 23 -87 15 -16
35 -26 52 -26 47 0 59 -10 59 -47 0 -108 62 -269 149 -387 28 -38 51 -76 51
-86 0 -45 34 -112 77 -149 63 -56 127 -76 243 -76 114 0 185 21 242 73 46 41
64 72 78 136 6 27 29 72 56 109 85 115 130 226 142 355 l7 67 47 5 c31 4 53
13 63 25 74 99 -51 371 -207 449 -67 34 -121 34 -184 0 -45 -24 -53 -25 -97
-15 -63 14 -232 14 -295 0 -45 -11 -53 -10 -85 10 -43 26 -120 35 -164 18z
m149 -57 c29 -22 33 -22 107 -10 96 16 230 15 298 -3 51 -13 54 -13 87 11 48
34 112 40 162 14 97 -50 199 -201 211 -314 5 -48 3 -58 -16 -77 -27 -27 -40
-26 -83 3 l-35 24 -6 -112 c-7 -153 -53 -270 -155 -399 -18 -22 -35 -60 -42
-90 -22 -106 -84 -157 -215 -180 -49 -8 -82 -8 -137 1 -126 22 -186 73 -208
180 -8 33 -25 69 -49 99 -99 124 -141 235 -148 389 l-6 112 -35 -24 c-42 -29
-56 -30 -82 -4 -66 66 59 320 195 394 41 22 117 16 157 -14z"/>
<path d="M774 1369 c-25 -13 -49 -52 -59 -96 l-6 -32 59 1 c75 1 129 -24 195
-88 26 -26 49 -45 51 -43 2 2 -7 38 -20 79 -44 139 -140 217 -220 179z"/>
<path d="M1364 1361 c-52 -31 -93 -92 -118 -171 -13 -41 -23 -76 -21 -78 2 -2
23 15 46 38 72 70 120 92 195 92 l66 -1 -6 27 c-13 55 -30 83 -57 97 -38 20
-68 19 -105 -4z"/>
<path d="M729 1179 l-24 -20 36 5 36 6 -1 -69 c-1 -54 3 -73 18 -90 37 -41 82
-15 93 53 3 20 8 36 11 36 3 0 18 -12 34 -27 49 -46 42 -16 -8 37 -80 85 -149
110 -195 69z"/>
<path d="M1405 1183 c-40 -21 -125 -104 -125 -122 0 -10 9 -6 28 12 15 15 31
27 34 27 4 0 9 -18 13 -39 8 -49 35 -76 68 -67 34 8 51 55 44 122 l-6 55 37
-6 37 -6 -24 20 c-28 25 -65 26 -106 4z"/>
<path d="M1082 880 c-42 -10 -72 -37 -72 -66 0 -27 44 -82 77 -95 17 -6 23
-16 23 -39 0 -25 -6 -33 -37 -47 -21 -10 -40 -18 -42 -20 -1 -1 0 -6 3 -12 5
-7 20 -5 46 5 37 15 43 15 80 0 49 -19 50 -19 50 -3 0 7 -16 19 -35 26 -35 12
-37 15 -37 51 0 35 2 40 16 40 25 0 77 69 74 98 -6 47 -78 78 -146 62z"/>
</g>
</svg>
